<svg id="regular" enable-background="new 0 0 24 24" height="512" viewBox="0 0 24 24" width="512" xmlns="http://www.w3.org/2000/svg"><path d="m3.187 19.809c.273 1.2.566 1.697 2.14 1.439.458-.076 1.03-.171 1.734-.055 1.168.194 4.256 4.128 8.647.658.857-.6 1.325-.932 2.988-.606.726.141 1.657-.008 2.112-1.436 4.339-.781 3.407-3.174 2.107-3.383-2.26-.369-3.759-2.702-3.919-3.446.159-.098.507-.219.729-.295 3.665-1.268 1.625-4.354-.867-3.402.163-2.6.21-4.683-1.917-6.68-2.261-2.116-5.754-2.213-8.035-1.212-3.976 1.738-3.945 5.105-3.768 7.932-1.585-.606-2.66.267-2.833 1.162-.262 1.411 1.086 1.885 1.89 2.168.281.099.75.264.821.317-.087.101-.591 2.342-3.576 3.332-.57.189-1.109.368-1.343.89-.139.312-.128.662.036 1.039.403.936 1.713 1.338 3.054 1.578zm3.115-6.017c.66-1.33-.206-2.055-1.608-2.549-.296-.104-.846-.298-.918-.476.025-.063.222-.189.409-.189.058.004.224.068.334.109 4.742 1.796-.853-5.374 4.988-7.926 1.789-.784 4.643-.722 6.409.933 2.831 2.656.604 6.534 1.832 7.093.874.397 1.71-.214 2.012-.223.235 0 .44.14.462.19.004.177-.615.391-.985.519-1.71.591-2.244 1.299-1.277 3.062.729 1.33 2.271 2.985 4.313 3.487-1.433.828-2.521.099-2.839 1.351-.164.665-.269.642-.45.607-5.066-.992-4.72 4.27-9.869.831-1.757-1.173-2.1-1.048-4.385-.784-.096-.377-.158-.785-.291-1.031-.361-.668-1.697-.33-2.744-1.001 2.101-.719 3.522-1.565 4.607-4.003z"/></svg>