<svg width="28" height="28" viewBox="0 0 28 28" fill="none" xmlns="http://www.w3.org/2000/svg">
<path opacity="0.3" fill-rule="evenodd" clip-rule="evenodd" d="M4.08337 24.5H23.9167C24.3808 24.5 24.826 24.3156 25.1541 23.9874C25.4823 23.6592 25.6667 23.2141 25.6667 22.75V9.91663C25.6667 9.4525 25.4823 9.00738 25.1541 8.67919C24.826 8.351 24.3808 8.16663 23.9167 8.16663H11.6667L8.68004 5.17996C8.51742 5.01713 8.32427 4.88798 8.11167 4.79989C7.89906 4.71181 7.67117 4.66652 7.44104 4.66663H4.08337C3.61925 4.66663 3.17413 4.851 2.84594 5.17919C2.51775 5.50738 2.33337 5.9525 2.33337 6.41663V22.75C2.33337 23.2141 2.51775 23.6592 2.84594 23.9874C3.17413 24.3156 3.61925 24.5 4.08337 24.5Z" fill="white"/>
<path fill-rule="evenodd" clip-rule="evenodd" d="M12.6876 19.5417C12.5415 19.5402 12.3972 19.5097 12.263 19.452C12.1289 19.3943 12.0075 19.3106 11.9059 19.2057L9.66822 16.9703C9.56211 16.8694 9.47763 16.748 9.4199 16.6134C9.36217 16.4788 9.3324 16.3339 9.3324 16.1875C9.3324 16.0411 9.36217 15.8961 9.4199 15.7616C9.47763 15.627 9.56211 15.5056 9.66822 15.4047C10.1162 14.9578 10.8431 14.9578 11.2339 15.4047L12.6876 16.8583L16.3766 13.1693C16.4775 13.0632 16.5989 12.9787 16.7335 12.921C16.8681 12.8633 17.013 12.8335 17.1594 12.8335C17.3058 12.8335 17.4507 12.8633 17.5853 12.921C17.7199 12.9787 17.8413 13.0632 17.9422 13.1693C18.0482 13.2702 18.1325 13.3916 18.1901 13.526C18.2477 13.6605 18.2774 13.8053 18.2774 13.9516C18.2774 14.0979 18.2477 14.2426 18.1901 14.3771C18.1325 14.5116 18.0482 14.6329 17.9422 14.7338L13.4704 19.2057C13.3687 19.3107 13.2471 19.3945 13.1127 19.4522C12.9783 19.5099 12.8338 19.5403 12.6876 19.5417Z" fill="white"/>
</svg>
