<svg width="47" height="48" viewBox="0 0 47 48" fill="none" xmlns="http://www.w3.org/2000/svg">
<g clip-path="url(#clip0)">
<path d="M47 39.6667C47 43.975 43.475 47.5 39.1667 47.5H7.83333C3.525 47.5 0 43.975 0 39.6667V8.33333C0 4.025 3.525 0.5 7.83333 0.5H39.1667C43.475 0.5 47 4.025 47 8.33333V39.6667Z" fill="white" fill-opacity="0.2"/>
<path d="M12.7714 10.7141H26.0957C28.5532 10.7141 30.5269 11.2747 32.0091 12.4036C33.4913 13.5325 34.2362 15.2297 34.2362 17.5106C34.2362 18.893 33.8983 20.0757 33.2225 21.0587C32.5467 22.0417 31.579 22.8096 30.3196 23.3472V23.424C32.0091 23.785 33.2916 24.5837 34.1594 25.8201C35.0272 27.0642 35.465 28.6155 35.465 30.4894C35.465 31.5645 35.273 32.5706 34.889 33.4998C34.505 34.4368 33.906 35.2431 33.0843 35.919C32.2625 36.5948 31.2181 37.1324 29.9356 37.5317C28.6531 37.931 27.1325 38.1307 25.3661 38.1307H12.7714V10.7141ZM17.5712 22.1953H25.4045C26.5565 22.1953 27.5165 21.8727 28.2844 21.2123C29.0524 20.5518 29.4364 19.6149 29.4364 18.3861C29.4364 17.0038 29.0908 16.0284 28.3996 15.4678C27.7085 14.9072 26.7101 14.623 25.4045 14.623H17.5712V22.1953ZM17.5712 34.2141H26.0573C27.5165 34.2141 28.6531 33.8377 29.4518 33.0775C30.2581 32.3248 30.6652 31.2497 30.6652 29.8673C30.6652 28.508 30.2658 27.4712 29.4518 26.734C28.6377 25.9967 27.5165 25.6435 26.0573 25.6435H17.5712V34.2141Z" fill="white"/>
</g>
<defs>
<clipPath id="clip0">
<rect width="47" height="47" fill="white" transform="translate(0 0.5)"/>
</clipPath>
</defs>
</svg>
