<svg width="43" height="44" viewBox="0 0 43 44" fill="none" xmlns="http://www.w3.org/2000/svg">
<g clip-path="url(#clip0)">
<path opacity="0.2" d="M0.365845 0.693346H42.9792V43.3067H0.365845V0.693346Z" fill="white"/>
<path d="M11.5706 36.3041L14.8315 34.3305C15.4607 35.446 16.033 36.3898 17.4058 36.3898C18.7216 36.3898 19.5514 35.8751 19.5514 33.8729V20.257H23.5559V33.9295C23.5559 38.0772 21.1246 39.9651 17.5774 39.9651C14.3739 39.9651 12.5144 38.3061 11.5704 36.3037L11.5706 36.3041ZM25.731 35.8749L28.9916 33.9871C29.85 35.3889 30.9657 36.4186 32.9392 36.4186C34.5986 36.4186 35.6566 35.589 35.6566 34.4447C35.6566 33.0718 34.5696 32.5854 32.7389 31.7847L31.738 31.3553C28.8488 30.1256 26.9324 28.5809 26.9324 25.32C26.9324 22.3164 29.2207 20.0279 32.7964 20.0279C35.3422 20.0279 37.1729 20.9148 38.4886 23.2318L35.3705 25.2343C34.6838 24.0043 33.9404 23.5181 32.7962 23.5181C31.6233 23.5181 30.8796 24.2618 30.8796 25.2343C30.8796 26.4356 31.6233 26.9221 33.3395 27.6659L34.3406 28.0948C37.7447 29.5539 39.6611 31.0412 39.6611 34.3876C39.6611 37.9921 36.8293 39.9657 33.0249 39.9657C29.3064 39.9657 26.9036 38.1922 25.7309 35.8751" fill="white"/>
</g>
<defs>
<clipPath id="clip0">
<rect width="42.6133" height="42.6133" fill="white" transform="translate(0.365845 0.693346)"/>
</clipPath>
</defs>
</svg>
