<svg width="40" height="52" viewBox="0 0 40 52" fill="none" xmlns="http://www.w3.org/2000/svg">
<path opacity="0.2" d="M34.7687 47.9323L19.6932 51.9916L4.6174 47.9323L1.13855 10.2435H38.248L34.7687 47.9323Z" fill="white"/>
<path d="M11.1372 4.70623V2.46299H14.4101V0.00835991H8.68256V6.94614H14.4101V4.70623H11.1372ZM20.2976 2.46299H22.5858V0.00835991H16.8577V2.46299C17.6241 3.22933 18.0237 3.59612 19.1321 4.70446C18.4841 4.70446 16.8577 4.70678 16.8577 4.70667V6.94614H22.5858V4.70623L20.2976 2.46299ZM28.4161 2.46299H30.7042V0.00835991H24.9759V2.46299C25.7422 3.22933 26.1421 3.59612 27.2505 4.70446C26.6028 4.70446 24.9759 4.70678 24.9759 4.70667V6.94614H30.7043V4.70623L28.4161 2.46299Z" fill="white"/>
<path d="M19.6797 22.72L8.88959 27.2138L9.24741 31.6629L19.6797 27.2025L30.7768 22.4579L31.2369 17.9066L19.6797 22.72Z" fill="white"/>
<path d="M8.88953 27.2137L9.24735 31.6629L19.6796 27.2025V22.72L8.88953 27.2137Z" fill="white"/>
<path d="M31.237 17.9067L19.6797 22.72V27.2025L30.7769 22.4579L31.237 17.9067Z" fill="white"/>
<path d="M8.90607 27.2137L9.264 31.6629L25.2709 31.7139L24.9129 37.6461L19.6457 39.1289L14.5823 37.8505L14.2755 34.1684H9.5708L10.1845 41.2768L19.6968 44.0893L29.1575 41.3278L30.3849 27.2137H8.90607Z" fill="white"/>
<path d="M19.6797 27.2137H8.88959L9.24741 31.6629L19.6797 31.6962V27.2137ZM19.6797 39.1148L19.6285 39.1291L14.5659 37.8506L14.2591 34.1685H9.55443L10.168 41.2769L19.6797 44.0895V39.1148Z" fill="white"/>
<path d="M7.91785 17.9067H31.237L30.7769 22.458H8.48032L7.91785 17.9067Z" fill="white"/>
<path opacity="0.05" d="M19.6797 17.9067H7.91785L8.48032 22.458H19.6797V17.9067Z" fill="white"/>
</svg>
