<svg width="39" height="52" viewBox="0 0 39 52" fill="none" xmlns="http://www.w3.org/2000/svg">
<path opacity="0.2" d="M36.7969 10.1895L33.4505 47.6782L18.408 51.8484L3.40706 47.684L0.0640869 10.1895H36.7969Z" fill="white"/>
<path d="M11.925 22.4523H18.4304V17.8538H6.89941L7.00942 19.0875L8.13973 31.7599H18.4304V27.1613H12.3453L11.925 22.4523ZM12.9615 34.0592H8.3452L8.9894 41.2796L18.4092 43.8945L18.4304 43.8887V39.1043L18.4103 39.1096L13.2889 37.7267L12.9615 34.0592Z" fill="white"/>
<path d="M3.48163 0H5.81856V2.30885H7.95635V0H10.2934V6.99178H7.95649V4.65053H5.8187V6.99178H3.48177V0H3.48163ZM13.3664 2.31864H11.3094V0H17.7621V2.31864H15.7038V6.99178H13.3668V2.31864H13.3667H13.3664ZM18.7861 0H21.2228L22.7217 2.45673L24.2192 0H26.6569V6.99178H24.3295V3.52627L22.7217 6.01222H22.6814L21.0727 3.52627V6.99178H18.7861V0ZM27.8199 0H30.1576V4.68077H33.444V6.99178H27.8198V0H27.8199Z" fill="white"/>
<path d="M18.4146 31.7599H24.0773L23.5433 37.7239L18.4145 39.1082V43.8923L27.8418 41.2796L27.9109 40.5027L28.9917 28.3962L29.1039 27.1613H18.4146V31.7599ZM18.4146 22.4411V22.4523H29.5223L29.6145 21.4188L29.8241 19.0875L29.934 17.8538H18.4146V22.4413V22.4411Z" fill="white"/>
</svg>
