<svg width="46" height="46" viewBox="0 0 46 46" fill="none" xmlns="http://www.w3.org/2000/svg">
<path d="M33.5324 16.8906C34.8247 15.9562 35.7876 14.6363 36.2829 13.1204C36.7781 11.6045 36.7802 9.97068 36.2888 8.45354C35.7974 6.9364 34.8379 5.61402 33.548 4.67633C32.258 3.73863 30.7041 3.23388 29.1094 3.23455H16.8906C15.2959 3.23382 13.7419 3.73856 12.4519 4.67626C11.1619 5.61396 10.2023 6.93638 9.71093 8.45356C9.21954 9.97075 9.22165 11.6046 9.71694 13.1206C10.2122 14.6365 11.1752 15.9564 12.4676 16.8908C11.5006 17.5892 10.7131 18.5072 10.1701 19.5693C9.62699 20.6314 9.34381 21.8072 9.34381 23.0001C9.34381 24.193 9.62699 25.3688 10.1701 26.4309C10.7131 27.493 11.5006 28.411 12.4676 29.1094C11.4215 29.8668 10.5873 30.8801 10.0449 32.0523C9.5025 33.2245 9.27009 34.5162 9.36992 35.8039C9.46975 37.0917 9.89847 38.3322 10.615 39.4068C11.3316 40.4813 12.312 41.354 13.4624 41.9411C14.6128 42.5283 15.8947 42.8103 17.1853 42.7602C18.4759 42.71 19.732 42.3295 20.8334 41.6548C21.9348 40.9802 22.8445 40.0342 23.4756 38.9073C24.1066 37.7804 24.4379 36.5103 24.4375 35.2187V28.9203C25.2252 29.5433 26.1294 30.0027 27.0971 30.2716C28.0647 30.5405 29.0763 30.6134 30.0725 30.486C31.0687 30.3587 32.0294 30.0337 32.8983 29.5301C33.7672 29.0264 34.5268 28.3543 35.1325 27.5532C35.7382 26.7521 36.1777 25.8381 36.4254 24.8648C36.6731 23.8915 36.7239 22.8786 36.5749 21.8854C36.4258 20.8922 36.0799 19.9388 35.5575 19.0811C35.035 18.2234 34.3465 17.4787 33.5324 16.8906ZM33.7813 10.7814C33.7798 12.0194 33.2877 13.2064 32.4126 14.0821C31.5375 14.9578 30.351 15.4509 29.113 15.4533L29.1094 15.4531L29.1024 15.4533L24.4375 15.4531V6.10955H29.1094C30.348 6.11097 31.5355 6.60365 32.4113 7.47948C33.2872 8.35532 33.7798 9.5428 33.7813 10.7814ZM12.2188 10.7814C12.2202 9.5428 12.7129 8.35532 13.5887 7.47948C14.4645 6.60365 15.652 6.11097 16.8906 6.10955H21.5625V15.4531H16.8872C15.6492 15.4508 14.4626 14.9577 13.5875 14.082C12.7125 13.2063 12.2202 12.0194 12.2188 10.7814ZM12.2188 23C12.2202 21.762 12.7124 20.575 13.5875 19.6993C14.4626 18.8235 15.6492 18.3304 16.8872 18.3281L16.8906 18.3283H21.5625V27.6717L16.8906 27.6719C15.652 27.6704 14.4645 27.1778 13.5887 26.3019C12.7129 25.4261 12.2202 24.2386 12.2188 23ZM16.8906 39.8904C16.2747 39.8943 15.6641 39.7762 15.0939 39.5432C14.5237 39.3101 14.0053 38.9666 13.5684 38.5324C13.1315 38.0982 12.7848 37.5819 12.5482 37.0132C12.3116 36.4445 12.1898 35.8346 12.1898 35.2187C12.1898 34.6027 12.3116 33.9928 12.5482 33.4241C12.7848 32.8554 13.1315 32.3391 13.5684 31.9049C14.0053 31.4707 14.5237 31.1272 15.0939 30.8941C15.6641 30.6611 16.2747 30.543 16.8906 30.5469H21.5625V35.2187C21.561 36.4573 21.0683 37.6448 20.1925 38.5206C19.3167 39.3964 18.1292 39.889 16.8906 39.8904ZM29.1094 27.6719C27.8753 27.6652 26.694 27.1705 25.8234 26.2959C24.9529 25.4212 24.4637 24.2376 24.4628 23.0036C24.4618 21.7695 24.9492 20.5852 25.8185 19.7092C26.6878 18.8333 27.8683 18.3368 29.1024 18.3283H29.113C30.347 18.3364 31.5277 18.8324 32.3972 19.7081C33.2668 20.5837 33.7546 21.7678 33.7541 23.0019C33.7537 24.2359 33.265 25.4197 32.3947 26.2946C31.5245 27.1696 30.3434 27.6647 29.1094 27.6719Z" fill="white"/>
<path opacity="0.15" d="M33.5323 16.8906C34.8246 15.9562 35.7876 14.6363 36.2828 13.1204C36.7781 11.6045 36.7801 9.97068 36.2888 8.45354C35.7974 6.9364 34.8378 5.61402 33.5479 4.67633C32.258 3.73863 30.7041 3.23388 29.1093 3.23455H16.8906C15.2958 3.23382 13.7418 3.73856 12.4518 4.67626C11.1619 5.61396 10.2023 6.93638 9.71087 8.45356C9.21948 9.97075 9.22159 11.6046 9.71688 13.1206C10.2122 14.6365 11.1752 15.9564 12.4676 16.8908C11.5005 17.5892 10.7131 18.5072 10.17 19.5693C9.62693 20.6314 9.34375 21.8072 9.34375 23.0001C9.34375 24.193 9.62693 25.3688 10.17 26.4309C10.7131 27.493 11.5005 28.411 12.4676 29.1094C11.4214 29.8668 10.5872 30.8801 10.0448 32.0523C9.50244 33.2245 9.27003 34.5162 9.36986 35.8039C9.46969 37.0917 9.89841 38.3322 10.615 39.4068C11.3315 40.4813 12.3119 41.354 13.4623 41.9411C14.6127 42.5283 15.8946 42.8103 17.1852 42.7602C18.4758 42.71 19.7319 42.3295 20.8333 41.6548C21.9347 40.9802 22.8445 40.0342 23.4755 38.9073C24.1066 37.7803 24.4378 36.5103 24.4374 35.2187V28.9203C25.2252 29.5433 26.1294 30.0027 27.097 30.2716C28.0647 30.5405 29.0763 30.6134 30.0724 30.486C31.0686 30.3587 32.0294 30.0337 32.8983 29.5301C33.7672 29.0264 34.5268 28.3543 35.1324 27.5532C35.7381 26.7521 36.1777 25.8381 36.4254 24.8648C36.673 23.8915 36.7239 22.8786 36.5748 21.8854C36.4258 20.8922 36.0799 19.9388 35.5574 19.0811C35.035 18.2234 34.3465 17.4787 33.5323 16.8906Z" fill="white"/>
</svg>
