<svg width="28" height="28" viewBox="0 0 28 28" fill="none" xmlns="http://www.w3.org/2000/svg">
<path opacity="0.3" d="M18.662 6.99996H10.5C9.57173 6.99996 8.68149 7.36871 8.02512 8.02509C7.36874 8.68146 6.99999 9.5717 6.99999 10.5V18.662C5.48566 18.5873 4.66666 17.6995 4.66666 16.121V7.21229C4.66666 5.56263 5.56266 4.66663 7.21232 4.66663H16.121C17.6995 4.66663 18.5873 5.48563 18.662 6.99996Z" fill="white"/>
<path fill-rule="evenodd" clip-rule="evenodd" d="M11.879 9.33337H20.7877C22.4373 9.33337 23.3333 10.2294 23.3333 11.879V20.7877C23.3333 22.4374 22.4373 23.3334 20.7877 23.3334H11.879C10.2293 23.3334 9.33334 22.4374 9.33334 20.7877V11.879C9.33334 10.2294 10.2293 9.33337 11.879 9.33337Z" fill="white"/>
</svg>
