<svg width="28" height="28" viewBox="0 0 28 28" fill="none" xmlns="http://www.w3.org/2000/svg">
<path opacity="0.3" d="M14 25.6667C20.4434 25.6667 25.6667 20.4434 25.6667 14C25.6667 7.55672 20.4434 2.33337 14 2.33337C7.55672 2.33337 2.33337 7.55672 2.33337 14C2.33337 20.4434 7.55672 25.6667 14 25.6667Z" fill="white"/>
<path fill-rule="evenodd" clip-rule="evenodd" d="M14.49 20.0177L18.0331 12.9326C18.0997 12.7993 18.1311 12.6511 18.1244 12.5023C18.1177 12.3534 18.0731 12.2088 17.9948 12.082C17.9165 11.9552 17.8071 11.8505 17.677 11.7779C17.547 11.7052 17.4005 11.6669 17.2515 11.6667H14V8.37323C13.9994 8.17651 13.9326 7.9857 13.8103 7.83162C13.688 7.67753 13.5174 7.56916 13.3259 7.52399C13.1344 7.47882 12.9333 7.49949 12.755 7.58266C12.5768 7.66583 12.4317 7.80666 12.3433 7.9824L8.80015 15.0676C8.73359 15.2009 8.70218 15.349 8.7089 15.4978C8.71561 15.6467 8.76023 15.7914 8.83851 15.9181C8.9168 16.0449 9.02617 16.1496 9.15625 16.2223C9.28633 16.2949 9.43281 16.3332 9.58181 16.3334H12.8333V19.6269C12.8338 19.8236 12.9007 20.0144 13.023 20.1685C13.1453 20.3226 13.3159 20.431 13.5074 20.4761C13.6989 20.5213 13.9 20.5006 14.0782 20.4175C14.2565 20.3343 14.4016 20.1935 14.49 20.0177Z" fill="white"/>
</svg>
