<svg width="28" height="28" viewBox="0 0 28 28" fill="none" xmlns="http://www.w3.org/2000/svg">
<path opacity="0.3" fill-rule="evenodd" clip-rule="evenodd" d="M5.25 8.16663H11.0833C11.5475 8.16663 11.9926 8.351 12.3208 8.67919C12.649 9.00738 12.8333 9.4525 12.8333 9.91663C12.8333 10.3808 12.649 10.8259 12.3208 11.1541C11.9926 11.4823 11.5475 11.6666 11.0833 11.6666H5.25C4.78587 11.6666 4.34075 11.4823 4.01256 11.1541C3.68437 10.8259 3.5 10.3808 3.5 9.91663C3.5 9.4525 3.68437 9.00738 4.01256 8.67919C4.34075 8.351 4.78587 8.16663 5.25 8.16663ZM15.75 17.5H21.5833C22.0475 17.5 22.4926 17.6843 22.8208 18.0125C23.149 18.3407 23.3333 18.7858 23.3333 19.25C23.3333 19.7141 23.149 20.1592 22.8208 20.4874C22.4926 20.8156 22.0475 21 21.5833 21H15.75C15.2859 21 14.8408 20.8156 14.5126 20.4874C14.1844 20.1592 14 19.7141 14 19.25C14 18.7858 14.1844 18.3407 14.5126 18.0125C14.8408 17.6843 15.2859 17.5 15.75 17.5Z" fill="white"/>
<path fill-rule="evenodd" clip-rule="evenodd" d="M19.8333 12.8334C18.9051 12.8334 18.0148 12.4646 17.3585 11.8082C16.7021 11.1519 16.3333 10.2616 16.3333 9.33337C16.3333 8.40512 16.7021 7.51488 17.3585 6.8585C18.0148 6.20212 18.9051 5.83337 19.8333 5.83337C20.7616 5.83337 21.6518 6.20212 22.3082 6.8585C22.9646 7.51488 23.3333 8.40512 23.3333 9.33337C23.3333 10.2616 22.9646 11.1519 22.3082 11.8082C21.6518 12.4646 20.7616 12.8334 19.8333 12.8334ZM7 22.1667C6.07174 22.1667 5.1815 21.798 4.52513 21.1416C3.86875 20.4852 3.5 19.595 3.5 18.6667C3.5 17.7385 3.86875 16.8482 4.52513 16.1918C5.1815 15.5355 6.07174 15.1667 7 15.1667C7.92826 15.1667 8.8185 15.5355 9.47487 16.1918C10.1313 16.8482 10.5 17.7385 10.5 18.6667C10.5 19.595 10.1313 20.4852 9.47487 21.1416C8.8185 21.798 7.92826 22.1667 7 22.1667Z" fill="white"/>
</svg>
